<svg xmlns="http://www.w3.org/2000/svg" width="23.005" height="23" viewBox="0 0 23.005 23">
  <path id="Icon_awesome-instagram" data-name="Icon awesome-instagram" d="M11.5,7.841a5.9,5.9,0,1,0,5.9,5.9A5.888,5.888,0,0,0,11.5,7.841Zm0,9.731a3.834,3.834,0,1,1,3.834-3.834A3.841,3.841,0,0,1,11.5,17.571ZM19.013,7.6a1.375,1.375,0,1,1-1.375-1.375A1.372,1.372,0,0,1,19.013,7.6ZM22.919,9a6.807,6.807,0,0,0-1.858-4.819,6.851,6.851,0,0,0-4.819-1.858c-1.9-.108-7.59-.108-9.489,0A6.842,6.842,0,0,0,1.933,4.171,6.829,6.829,0,0,0,.076,8.99c-.108,1.9-.108,7.591,0,9.489A6.807,6.807,0,0,0,1.933,23.3a6.86,6.86,0,0,0,4.819,1.858c1.9.108,7.59.108,9.489,0A6.807,6.807,0,0,0,21.061,23.3a6.851,6.851,0,0,0,1.858-4.819c.108-1.9.108-7.585,0-9.484ZM20.466,20.517A3.881,3.881,0,0,1,18.279,22.7c-1.514.6-5.107.462-6.78.462S6.229,23.3,4.72,22.7a3.881,3.881,0,0,1-2.186-2.186c-.6-1.514-.462-5.107-.462-6.78s-.133-5.271.462-6.78A3.881,3.881,0,0,1,4.72,4.772c1.514-.6,5.107-.462,6.78-.462s5.271-.133,6.78.462a3.881,3.881,0,0,1,2.186,2.186c.6,1.514.462,5.107.462,6.78S21.066,19.008,20.466,20.517Z" transform="translate(0.005 -2.237)" fill="#fff"/>
</svg>
