<svg xmlns="http://www.w3.org/2000/svg" width="22.992" height="22.991" viewBox="0 0 22.992 22.991">
  <path id="Icon_awesome-linkedin-in" data-name="Icon awesome-linkedin-in" d="M5.147,22.992H.38V7.642H5.147ZM2.761,5.548A2.774,2.774,0,1,1,5.521,2.761,2.784,2.784,0,0,1,2.761,5.548ZM22.987,22.992H18.23V15.52c0-1.781-.036-4.065-2.478-4.065-2.478,0-2.858,1.935-2.858,3.936v7.6H8.132V7.642H12.7V9.736h.067a5.009,5.009,0,0,1,4.51-2.479c4.824,0,5.711,3.177,5.711,7.3v8.432Z" transform="translate(0 -0.001)" fill="#fff"/>
</svg>
