<svg xmlns="http://www.w3.org/2000/svg" width="104" height="104" viewBox="0 0 104 104">
  <g id="Group_10" data-name="Group 10" transform="translate(-130.735 -2216.735)">
    <circle id="Ellipse_7" data-name="Ellipse 7" cx="52" cy="52" r="52" transform="translate(130.735 2216.735)" fill="#fff"/>
    <g id="Layer_2" data-name="Layer 2" transform="translate(155.11 2241.119)">
      <g id="NAVIGATIE">
        <g id="Group_4" data-name="Group 4">
          <path id="Path_346" data-name="Path 346" d="M54.289,1.532c-.011-.055-.032-.105-.047-.158a1.854,1.854,0,0,0-.061-.2,1.868,1.868,0,0,0-.1-.186c-.026-.048-.047-.1-.077-.143a1.919,1.919,0,0,0-.238-.29h0c-.015-.014-.031-.024-.046-.037a1.933,1.933,0,0,0-.244-.2c-.048-.032-.1-.054-.15-.081a1.826,1.826,0,0,0-.179-.094,1.839,1.839,0,0,0-.2-.061,1.6,1.6,0,0,0-.159-.047A1.907,1.907,0,0,0,52.449,0l-.03,0H15.142a1.9,1.9,0,0,0-.378.038,1.882,1.882,0,0,0-.258.079c-.033.012-.067.017-.1.031a1.9,1.9,0,0,0-.265.142C14.121.3,14.1.31,14.079.324a1.91,1.91,0,0,0-.287.237h0L.556,13.856c-.021.021-.036.046-.055.068a1.9,1.9,0,0,0-.178.218c-.026.038-.043.081-.065.121a1.869,1.869,0,0,0-.11.207c-.02.047-.03.1-.046.147a1.872,1.872,0,0,0-.063.209A1.922,1.922,0,0,0,0,15.2V52.481a1.907,1.907,0,0,0,.038.374c.011.055.032.106.048.159a1.9,1.9,0,0,0,.062.2,1.884,1.884,0,0,0,.1.192c.025.045.045.092.074.136a1.921,1.921,0,0,0,.239.292h0l.017.014a1.918,1.918,0,0,0,.272.221c.05.033.1.055.155.084a1.891,1.891,0,0,0,.172.09,1.934,1.934,0,0,0,.2.062c.052.015.1.035.155.046a1.914,1.914,0,0,0,.373.038H39.185a1.915,1.915,0,0,0,.378-.038,1.871,1.871,0,0,0,.234-.071c.041-.014.083-.022.123-.038a1.89,1.89,0,0,0,.244-.131c.027-.017.057-.028.084-.046a1.916,1.916,0,0,0,.287-.237h0L53.771,40.529c.021-.021.036-.046.055-.068A1.923,1.923,0,0,0,54,40.244c.025-.038.042-.08.065-.12a1.885,1.885,0,0,0,.11-.208c.02-.047.029-.1.045-.145a1.829,1.829,0,0,0,.064-.211,1.9,1.9,0,0,0,.038-.377V1.906a1.922,1.922,0,0,0-.038-.374ZM50.511,37.277H41.093V15.99L50.511,6.53ZM3.816,17.111h9.418V38.4L3.816,47.858ZM17.05,37.277V17.111H37.277V37.277ZM38.392,13.295H17.05V3.816H47.827Zm-25.158,0H6.5L13.234,6.53Zm2.7,27.8H37.276v9.478H6.5Zm25.158,0h6.734l-6.734,6.765Z" fill="#00819d"/>
        </g>
      </g>
    </g>
  </g>
</svg>
