<svg xmlns="http://www.w3.org/2000/svg" width="26.277" height="21.342" viewBox="0 0 26.277 21.342">
  <path id="Icon_awesome-twitter" data-name="Icon awesome-twitter" d="M23.576,8.7c.017.233.017.467.017.7A15.218,15.218,0,0,1,8.27,24.722,15.219,15.219,0,0,1,0,22.3a11.141,11.141,0,0,0,1.3.067,10.785,10.785,0,0,0,6.686-2.3,5.4,5.4,0,0,1-5.035-3.735,6.791,6.791,0,0,0,1.017.083,5.7,5.7,0,0,0,1.417-.183A5.386,5.386,0,0,1,1.067,10.95v-.067a5.424,5.424,0,0,0,2.434.684,5.393,5.393,0,0,1-1.667-7.2A15.308,15.308,0,0,0,12.938,10,6.079,6.079,0,0,1,12.8,8.766a5.391,5.391,0,0,1,9.32-3.685,10.6,10.6,0,0,0,3.418-1.3,5.371,5.371,0,0,1-2.368,2.968,10.8,10.8,0,0,0,3.1-.834,11.577,11.577,0,0,1-2.7,2.784Z" transform="translate(0 -3.381)" fill="#fff"/>
</svg>
